<mxfile host="app.diagrams.net" modified="2022-11-11T06:04:43.738Z" agent="5.0 (Windows NT 10.0; Win64; x64) AppleWebKit/537.36 (KHTML, like Gecko) Chrome/107.0.0.0 Safari/537.36" etag="LDSoqnf3iRpR7iAbR6B2" version="20.5.3" type="github">
  <diagram id="nHkk1Z7aDTNOA0EBUVWt" name="Page-1">
    <mxGraphModel dx="868" dy="450" grid="1" gridSize="10" guides="1" tooltips="1" connect="1" arrows="1" fold="1" page="1" pageScale="1" pageWidth="827" pageHeight="1169" math="0" shadow="0">
      <root>
        <mxCell id="0" />
        <mxCell id="1" parent="0" />
        <mxCell id="5jCd8L9C4WtBa3yS70Y4-16" style="edgeStyle=orthogonalEdgeStyle;rounded=0;orthogonalLoop=1;jettySize=auto;html=1;exitX=0.5;exitY=1;exitDx=0;exitDy=0;" edge="1" parent="1" source="5jCd8L9C4WtBa3yS70Y4-1" target="5jCd8L9C4WtBa3yS70Y4-15">
          <mxGeometry relative="1" as="geometry" />
        </mxCell>
        <mxCell id="5jCd8L9C4WtBa3yS70Y4-18" style="edgeStyle=orthogonalEdgeStyle;rounded=0;orthogonalLoop=1;jettySize=auto;html=1;" edge="1" parent="1" source="5jCd8L9C4WtBa3yS70Y4-1" target="5jCd8L9C4WtBa3yS70Y4-17">
          <mxGeometry relative="1" as="geometry">
            <Array as="points">
              <mxPoint x="395" y="110" />
              <mxPoint x="550" y="110" />
            </Array>
          </mxGeometry>
        </mxCell>
        <mxCell id="5jCd8L9C4WtBa3yS70Y4-1" value="SCAN BRCODE" style="rounded=1;whiteSpace=wrap;html=1;" vertex="1" parent="1">
          <mxGeometry x="310" y="30" width="170" height="60" as="geometry" />
        </mxCell>
        <mxCell id="5jCd8L9C4WtBa3yS70Y4-15" value="SCAN BRCODE" style="rounded=1;whiteSpace=wrap;html=1;" vertex="1" parent="1">
          <mxGeometry x="195" y="130" width="170" height="60" as="geometry" />
        </mxCell>
        <mxCell id="5jCd8L9C4WtBa3yS70Y4-17" value="SCAN BRCODE" style="rounded=1;whiteSpace=wrap;html=1;" vertex="1" parent="1">
          <mxGeometry x="465" y="130" width="170" height="60" as="geometry" />
        </mxCell>
      </root>
    </mxGraphModel>
  </diagram>
</mxfile>
